# This file uses centimeters as units for non-parametric coordinates.

v -0.258051 -4.522893 8.648847
v -0.258051 4.342908 8.648847
v -0.258051 4.342908 -0.216954
v -0.258051 -4.522893 -0.216954
v 0.019006 -4.522893 -0.216954
v 0.019006 4.342908 -0.216954
v 0.019006 4.342908 8.648847
v 0.019006 -4.522893 8.648847
vt 0.097656 0.748047
vt 0.222656 0.748047
vt 0.222656 0.873047
vt 0.097656 0.873047
vt 0.226563 0.873047
vt 0.351563 0.873047
vt 0.351563 0.748047
vt 0.226563 0.748047
vt 0.285156 0.730469
vt 0.289063 0.730469
vt 0.289063 0.605469
vt 0.285156 0.605469
vt 0.679688 0.677734
vt 0.683594 0.677734
vt 0.683594 0.802734
vt 0.679688 0.802734
vt 0.679688 0.548828
vt 0.683594 0.548828
vt 0.683594 0.673828
vt 0.679688 0.673828
vt 0.097656 0.873047
vt 0.101563 0.873047
vt 0.101563 0.748047
vt 0.097656 0.748047
vn -1.000000 0.000000 0.000000
vn -1.000000 0.000000 0.000000
vn -1.000000 0.000000 0.000000
vn -1.000000 0.000000 0.000000
vn 1.000000 0.000000 0.000000
vn 1.000000 0.000000 0.000000
vn 1.000000 0.000000 0.000000
vn 1.000000 0.000000 0.000000
vn 0.000000 -1.000000 0.000000
vn 0.000000 -1.000000 0.000000
vn 0.000000 -1.000000 0.000000
vn 0.000000 -1.000000 0.000000
vn 0.000000 1.000000 0.000000
vn 0.000000 1.000000 0.000000
vn 0.000000 1.000000 0.000000
vn 0.000000 1.000000 0.000000
vn 0.000000 0.000000 -1.000000
vn 0.000000 0.000000 -1.000000
vn 0.000000 0.000000 -1.000000
vn 0.000000 0.000000 -1.000000
vn 0.000000 0.000000 1.000000
vn 0.000000 0.000000 1.000000
vn 0.000000 0.000000 1.000000
vn 0.000000 0.000000 1.000000
s off
g BathRoomPanel
f 1/1/1 2/2/2 3/3/3 4/4/4
f 5/5/5 6/6/6 7/7/7 8/8/8
f 4/9/9 5/10/10 8/11/11 1/12/12
f 2/13/13 7/14/14 6/15/15 3/16/16
f 3/17/17 6/18/18 5/19/19 4/20/20
f 1/21/21 8/22/22 7/23/23 2/24/24
