# This file uses centimeters as units for non-parametric coordinates.

v -0.800000 -0.600000 1.600000
v -0.800000 -0.600000 -1.600000
v -0.800000 -0.500000 1.600000
v -0.800000 -0.500000 -1.600000
v -0.800000 -0.100000 1.600000
v -0.800000 -0.100000 -1.600000
v -0.800000 -0.000000 1.600000
v -0.800000 -0.000000 -1.600000
v 0.800000 -0.600000 1.600000
v 0.800000 -0.600000 -1.600000
v 0.800000 -0.500000 1.600000
v 0.800000 -0.500000 -1.600000
v 0.800000 -0.100000 1.600000
v 0.800000 -0.100000 -1.600000
v 0.800000 -0.000000 1.600000
v 0.800000 -0.000000 -1.600000
v -0.700000 -0.600000 1.500000
v 0.700000 -0.600000 1.500000
v -0.600000 -0.600000 1.400000
v 0.600000 -0.600000 1.400000
v -0.500000 -0.600000 1.300000
v -0.100000 -0.600000 1.300000
v 0.100000 -0.600000 1.300000
v 0.500000 -0.600000 1.300000
v -0.500000 -0.600000 -1.300000
v -0.100000 -0.600000 -1.300000
v 0.100000 -0.600000 -1.300000
v 0.500000 -0.600000 -1.300000
v -0.600000 -0.600000 -1.400000
v 0.600000 -0.600000 -1.400000
v -0.700000 -0.600000 -1.500000
v 0.700000 -0.600000 -1.500000
vt 0.072266 0.500000
vt 0.068359 0.500000
vt 0.064453 0.500000
vt 0.005859 0.500000
vt 0.072266 0.500000
vt 0.072266 0.500000
vt 0.072266 0.500000
vt 0.072266 0.500000
vt 0.068359 0.500000
vt 0.068359 0.500000
vt 0.068359 0.500000
vt 0.068359 0.500000
vt 0.064453 0.500000
vt 0.064453 0.500000
vt 0.064453 0.500000
vt 0.064453 0.500000
vt 0.072266 0.500000
vt 0.072266 0.500000
vt 0.072266 0.500000
vt 0.072266 0.500000
vt 0.072266 0.500000
vt 0.072266 0.500000
vt 0.068359 0.500000
vt 0.068359 0.500000
vt 0.068359 0.500000
vt 0.068359 0.500000
vt 0.068359 0.500000
vt 0.068359 0.500000
vt 0.064453 0.500000
vt 0.064453 0.500000
vt 0.064453 0.500000
vt 0.064453 0.500000
vt 0.064453 0.500000
vt 0.064453 0.500000
vt 0.072266 0.500000
vt 0.072266 0.500000
vt 0.072266 0.500000
vt 0.068359 0.500000
vt 0.068359 0.500000
vt 0.068359 0.500000
vt 0.072266 0.500000
vt 0.072266 0.500000
vt 0.072266 0.500000
vt 0.064453 0.500000
vt 0.064453 0.500000
vt 0.064453 0.500000
vt 0.068359 0.500000
vt 0.068359 0.500000
vt 0.068359 0.500000
vt 0.064453 0.500000
vt 0.064453 0.500000
vt 0.064453 0.500000
vt 0.072266 0.500000
vt 0.072266 0.500000
vt 0.072266 0.500000
vt 0.068359 0.500000
vt 0.068359 0.500000
vt 0.068359 0.500000
vt 0.072266 0.500000
vt 0.072266 0.500000
vt 0.072266 0.500000
vt 0.064453 0.500000
vt 0.064453 0.500000
vt 0.064453 0.500000
vt 0.068359 0.500000
vt 0.068359 0.500000
vt 0.068359 0.500000
vt 0.064453 0.500000
vt 0.064453 0.500000
vt 0.064453 0.500000
vt 0.072266 0.500000
vt 0.072266 0.500000
vt 0.072266 0.500000
vt 0.072266 0.500000
vt 0.072266 0.500000
vt 0.072266 0.500000
vt 0.068359 0.500000
vt 0.068359 0.500000
vt 0.068359 0.500000
vt 0.068359 0.500000
vt 0.068359 0.500000
vt 0.068359 0.500000
vt 0.064453 0.500000
vt 0.064453 0.500000
vt 0.064453 0.500000
vt 0.064453 0.500000
vt 0.064453 0.500000
vt 0.064453 0.500000
vt 0.064453 0.500000
vt 0.064453 0.500000
vt 0.064453 0.500000
vt 0.064453 0.500000
vt 0.064453 0.500000
vt 0.064453 0.500000
vt 0.064453 0.500000
vt 0.064453 0.500000
vt 0.064453 0.500000
vt 0.005859 0.500000
vt 0.005859 0.500000
vt 0.064453 0.500000
vt 0.064453 0.500000
vt 0.064453 0.500000
vt 0.005859 0.500000
vt 0.005859 0.500000
vt 0.005859 0.500000
vt 0.005859 0.500000
vt 0.005859 0.500000
vt 0.064453 0.500000
vt 0.064453 0.500000
vt 0.064453 0.500000
vt 0.064453 0.500000
vt 0.064453 0.500000
vt 0.064453 0.500000
vt 0.005859 0.500000
vt 0.005859 0.500000
vt 0.005859 0.500000
vt 0.068359 0.500000
vt 0.068359 0.500000
vt 0.068359 0.500000
vt 0.064453 0.500000
vt 0.064453 0.500000
vt 0.064453 0.500000
vt 0.064453 0.500000
vt 0.064453 0.500000
vt 0.064453 0.500000
vt 0.064453 0.500000
vt 0.064453 0.500000
vt 0.064453 0.500000
vt 0.064453 0.500000
vt 0.064453 0.500000
vt 0.064453 0.500000
vt 0.064453 0.500000
vt 0.064453 0.500000
vt 0.064453 0.500000
vt 0.064453 0.500000
vt 0.064453 0.500000
vt 0.064453 0.500000
vt 0.068359 0.500000
vt 0.068359 0.500000
vt 0.068359 0.500000
vt 0.072266 0.500000
vt 0.072266 0.500000
vt 0.072266 0.500000
vt 0.068359 0.500000
vt 0.068359 0.500000
vt 0.068359 0.500000
vt 0.068359 0.500000
vt 0.068359 0.500000
vt 0.068359 0.500000
vt 0.068359 0.500000
vt 0.068359 0.500000
vt 0.068359 0.500000
vt 0.068359 0.500000
vt 0.068359 0.500000
vt 0.068359 0.500000
vt 0.072266 0.500000
vt 0.072266 0.500000
vt 0.072266 0.500000
vt 0.072266 0.500000
vt 0.072266 0.500000
vt 0.072266 0.500000
vt 0.072266 0.500000
vt 0.072266 0.500000
vt 0.072266 0.500000
vt 0.072266 0.500000
vt 0.072266 0.500000
vt 0.072266 0.500000
vt 0.072266 0.500000
vt 0.072266 0.500000
vt 0.072266 0.500000
vt 0.064453 0.500000
vt 0.064453 0.500000
vt 0.064453 0.500000
vt 0.064453 0.500000
vt 0.064453 0.500000
vt 0.064453 0.500000
vn -1.000000 0.000000 0.000000
vn -1.000000 0.000000 0.000000
vn -1.000000 0.000000 0.000000
vn -1.000000 0.000000 0.000000
vn -1.000000 0.000000 0.000000
vn -1.000000 0.000000 0.000000
vn -1.000000 0.000000 0.000000
vn -1.000000 0.000000 0.000000
vn -1.000000 0.000000 0.000000
vn -1.000000 0.000000 0.000000
vn -1.000000 0.000000 0.000000
vn -1.000000 0.000000 0.000000
vn -1.000000 0.000000 0.000000
vn -1.000000 0.000000 0.000000
vn -1.000000 0.000000 0.000000
vn -1.000000 0.000000 0.000000
vn -1.000000 0.000000 0.000000
vn -1.000000 0.000000 0.000000
vn 1.000000 0.000000 0.000000
vn 1.000000 0.000000 0.000000
vn 1.000000 0.000000 0.000000
vn 1.000000 0.000000 0.000000
vn 1.000000 0.000000 0.000000
vn 1.000000 0.000000 0.000000
vn 1.000000 0.000000 0.000000
vn 1.000000 0.000000 0.000000
vn 1.000000 0.000000 0.000000
vn 1.000000 0.000000 0.000000
vn 1.000000 0.000000 0.000000
vn 1.000000 0.000000 0.000000
vn 1.000000 0.000000 0.000000
vn 1.000000 0.000000 0.000000
vn 1.000000 0.000000 0.000000
vn 1.000000 0.000000 0.000000
vn 1.000000 0.000000 0.000000
vn 1.000000 0.000000 0.000000
vn 0.000000 0.000000 1.000000
vn 0.000000 0.000000 1.000000
vn 0.000000 0.000000 1.000000
vn 0.000000 0.000000 1.000000
vn 0.000000 0.000000 1.000000
vn 0.000000 0.000000 1.000000
vn 0.000000 0.000000 1.000000
vn 0.000000 0.000000 1.000000
vn 0.000000 0.000000 1.000000
vn 0.000000 0.000000 1.000000
vn 0.000000 0.000000 1.000000
vn 0.000000 0.000000 1.000000
vn 0.000000 0.000000 1.000000
vn 0.000000 0.000000 1.000000
vn 0.000000 0.000000 1.000000
vn 0.000000 0.000000 1.000000
vn 0.000000 0.000000 1.000000
vn 0.000000 0.000000 1.000000
vn 0.000000 0.000000 -1.000000
vn 0.000000 0.000000 -1.000000
vn 0.000000 0.000000 -1.000000
vn 0.000000 0.000000 -1.000000
vn 0.000000 0.000000 -1.000000
vn 0.000000 0.000000 -1.000000
vn 0.000000 0.000000 -1.000000
vn 0.000000 0.000000 -1.000000
vn 0.000000 0.000000 -1.000000
vn 0.000000 0.000000 -1.000000
vn 0.000000 0.000000 -1.000000
vn 0.000000 0.000000 -1.000000
vn 0.000000 0.000000 -1.000000
vn 0.000000 0.000000 -1.000000
vn 0.000000 0.000000 -1.000000
vn 0.000000 0.000000 -1.000000
vn 0.000000 0.000000 -1.000000
vn 0.000000 0.000000 -1.000000
vn 0.000000 -1.000000 0.000000
vn 0.000000 -1.000000 0.000000
vn 0.000000 -1.000000 0.000000
vn 0.000000 -1.000000 0.000000
vn 0.000000 -1.000000 0.000000
vn 0.000000 -1.000000 0.000000
vn 0.000000 -1.000000 0.000000
vn 0.000000 -1.000000 0.000000
vn 0.000000 -1.000000 0.000000
vn 0.000000 -1.000000 0.000000
vn 0.000000 -1.000000 0.000000
vn 0.000000 -1.000000 0.000000
vn 0.000000 -1.000000 0.000000
vn 0.000000 -1.000000 0.000000
vn 0.000000 -1.000000 0.000000
vn 0.000000 -1.000000 0.000000
vn 0.000000 -1.000000 0.000000
vn 0.000000 -1.000000 0.000000
vn 0.000000 -1.000000 0.000000
vn 0.000000 -1.000000 0.000000
vn 0.000000 -1.000000 0.000000
vn 0.000000 -1.000000 0.000000
vn 0.000000 -1.000000 0.000000
vn 0.000000 -1.000000 0.000000
vn 0.000000 -1.000000 0.000000
vn 0.000000 -1.000000 0.000000
vn 0.000000 -1.000000 0.000000
vn 0.000000 -1.000000 0.000000
vn 0.000000 -1.000000 0.000000
vn 0.000000 -1.000000 0.000000
vn 0.000000 -1.000000 0.000000
vn 0.000000 -1.000000 0.000000
vn 0.000000 -1.000000 0.000000
vn 0.000000 -1.000000 0.000000
vn 0.000000 -1.000000 0.000000
vn 0.000000 -1.000000 0.000000
vn 0.000000 -1.000000 0.000000
vn 0.000000 -1.000000 0.000000
vn 0.000000 -1.000000 0.000000
vn 0.000000 -1.000000 0.000000
vn 0.000000 -1.000000 0.000000
vn 0.000000 -1.000000 0.000000
vn 0.000000 -1.000000 0.000000
vn 0.000000 -1.000000 0.000000
vn 0.000000 -1.000000 0.000000
vn 0.000000 -1.000000 0.000000
vn 0.000000 -1.000000 0.000000
vn 0.000000 -1.000000 0.000000
vn 0.000000 -1.000000 0.000000
vn 0.000000 -1.000000 0.000000
vn 0.000000 -1.000000 0.000000
vn 0.000000 -1.000000 0.000000
vn 0.000000 -1.000000 0.000000
vn 0.000000 -1.000000 0.000000
vn 0.000000 -1.000000 0.000000
vn 0.000000 -1.000000 0.000000
vn 0.000000 -1.000000 0.000000
vn 0.000000 -1.000000 0.000000
vn 0.000000 -1.000000 0.000000
vn 0.000000 -1.000000 0.000000
vn 0.000000 -1.000000 0.000000
vn 0.000000 -1.000000 0.000000
vn 0.000000 -1.000000 0.000000
vn 0.000000 -1.000000 0.000000
vn 0.000000 -1.000000 0.000000
vn 0.000000 -1.000000 0.000000
vn 0.000000 -1.000000 0.000000
vn 0.000000 -1.000000 0.000000
vn 0.000000 -1.000000 0.000000
vn 0.000000 -1.000000 0.000000
vn 0.000000 -1.000000 0.000000
vn 0.000000 -1.000000 0.000000
vn 0.000000 -1.000000 0.000000
vn 0.000000 -1.000000 0.000000
vn 0.000000 -1.000000 0.000000
vn 0.000000 -1.000000 0.000000
vn 0.000000 -1.000000 0.000000
vn 0.000000 -1.000000 0.000000
vn 0.000000 -1.000000 0.000000
vn 0.000000 -1.000000 0.000000
vn 0.000000 -1.000000 0.000000
vn 0.000000 -1.000000 0.000000
vn 0.000000 -1.000000 0.000000
vn 0.000000 -1.000000 0.000000
vn 0.000000 -1.000000 0.000000
vn 0.000000 -1.000000 0.000000
vn 0.000000 -1.000000 0.000000
vn 0.000000 -1.000000 0.000000
vn 0.000000 -1.000000 0.000000
vn 0.000000 -1.000000 0.000000
vn 0.000000 -1.000000 0.000000
vn 0.000000 -1.000000 0.000000
vn 0.000000 -1.000000 0.000000
vn 0.000000 -1.000000 0.000000
vn 0.000000 -1.000000 0.000000
vn 0.000000 -1.000000 0.000000
vn 0.000000 -1.000000 0.000000
vn 0.000000 -1.000000 0.000000
vn 0.000000 -1.000000 0.000000
vn 0.000000 -1.000000 0.000000
vn 0.000000 -1.000000 0.000000
vn 0.000000 -1.000000 0.000000
vn 0.000000 1.000000 0.000000
vn 0.000000 1.000000 0.000000
vn 0.000000 1.000000 0.000000
vn 0.000000 1.000000 0.000000
vn 0.000000 1.000000 0.000000
vn 0.000000 1.000000 0.000000
s off
g LampCeiling_Mesh
f 3/1/1 2/5/2 1/6/3
f 4/7/4 2/8/5 3/1/6
f 5/2/7 4/9/8 3/10/9
f 6/11/10 4/12/11 5/2/12
f 7/3/13 6/13/14 5/14/15
f 8/15/16 6/16/17 7/3/18
f 9/17/19 10/18/20 11/19/21
f 11/20/22 10/21/23 12/22/24
f 11/23/25 12/24/26 13/25/27
f 13/26/28 12/27/29 14/28/30
f 13/29/31 14/30/32 15/31/33
f 15/32/34 14/33/35 16/34/36
f 9/35/37 3/36/38 1/37/39
f 11/38/40 5/39/41 3/40/42
f 11/41/43 3/42/44 9/43/45
f 13/44/46 7/45/47 5/46/48
f 13/47/49 5/48/50 11/49/51
f 15/50/52 7/51/53 13/52/54
f 2/53/55 4/54/56 10/55/57
f 4/56/58 6/57/59 12/58/60
f 10/59/61 4/60/62 12/61/63
f 6/62/64 8/63/65 14/64/66
f 12/65/67 6/66/68 14/67/69
f 14/68/70 8/69/71 16/70/72
f 17/71/73 9/72/74 1/73/75
f 18/74/76 9/75/77 17/76/78
f 19/77/79 18/78/80 17/79/81
f 20/80/82 18/81/83 19/82/84
f 21/83/85 20/84/86 19/85/87
f 22/86/88 20/87/89 21/88/90
f 23/89/91 20/90/92 22/91/93
f 24/92/94 20/93/95 23/94/96
f 25/95/97 21/96/98 19/97/99
f 25/4/100 22/98/101 21/99/102
f 26/100/103 23/101/104 22/102/105
f 26/103/106 22/104/107 25/4/108
f 27/105/109 24/106/110 23/107/111
f 27/108/112 23/109/113 26/110/114
f 28/111/115 20/112/116 24/113/117
f 28/114/118 24/115/119 27/116/120
f 29/117/121 19/118/122 17/119/123
f 29/120/124 27/121/125 26/122/126
f 29/123/127 28/124/128 27/125/129
f 29/126/130 25/127/131 19/128/132
f 29/129/133 26/130/134 25/131/135
f 30/132/136 20/133/137 28/134/138
f 30/135/139 28/136/140 29/137/141
f 30/138/142 18/139/143 20/140/144
f 31/141/145 17/142/146 1/143/147
f 31/144/148 29/145/149 17/146/150
f 31/147/151 30/148/152 29/149/153
f 32/150/154 18/151/155 30/152/156
f 32/153/157 30/154/158 31/155/159
f 32/156/160 9/157/161 18/158/162
f 2/159/163 31/160/164 1/161/165
f 2/162/166 32/163/167 31/164/168
f 10/165/169 9/166/170 32/167/171
f 10/168/172 32/169/173 2/170/174
f 7/171/175 15/172/176 8/173/177
f 8/174/178 15/175/179 16/176/180
