# This file uses centimeters as units for non-parametric coordinates.

v -1.662338 -2.424243 0.000000
v -1.662338 2.424243 0.000000
v -1.662338 2.424243 -0.138529
v -1.662338 -2.424243 -0.138529
v 1.662337 -2.424243 -0.138529
v 1.662337 2.424243 -0.138529
v 1.662337 2.424243 0.000000
v 1.662337 -2.424243 0.000000
vt 0.001953 0.931641
vt 0.001953 1.000000
vt 0.000000 1.000000
vt 0.000000 0.931641
vt 0.000000 0.931641
vt 0.000000 1.000000
vt 0.001953 1.000000
vt 0.001953 0.931641
vt 0.000000 0.953125
vt 0.000000 1.000000
vt 0.001953 1.000000
vt 0.001953 0.953125
vt 0.001953 0.953125
vt 0.001953 1.000000
vt 0.000000 1.000000
vt 0.000000 0.953125
vt 0.687500 0.568359
vt 0.734375 0.568359
vt 0.734375 0.636719
vt 0.687500 0.636719
vt 0.318359 0.544922
vt 0.365234 0.544922
vt 0.365234 0.476563
vt 0.318359 0.476563
vn -1.000000 0.000000 0.000000
vn -1.000000 0.000000 0.000000
vn -1.000000 0.000000 0.000000
vn -1.000000 0.000000 0.000000
vn 1.000000 0.000000 0.000000
vn 1.000000 0.000000 0.000000
vn 1.000000 0.000000 0.000000
vn 1.000000 0.000000 0.000000
vn 0.000000 -1.000000 0.000000
vn 0.000000 -1.000000 0.000000
vn 0.000000 -1.000000 0.000000
vn 0.000000 -1.000000 0.000000
vn 0.000000 1.000000 0.000000
vn 0.000000 1.000000 0.000000
vn 0.000000 1.000000 0.000000
vn 0.000000 1.000000 0.000000
vn 0.000000 0.000000 -1.000000
vn 0.000000 0.000000 -1.000000
vn 0.000000 0.000000 -1.000000
vn 0.000000 0.000000 -1.000000
vn 0.000000 0.000000 1.000000
vn 0.000000 0.000000 1.000000
vn 0.000000 0.000000 1.000000
vn 0.000000 0.000000 1.000000
s off
g Poster6
f 1/1/1 2/2/2 3/3/3 4/4/4
f 5/5/5 6/6/6 7/7/7 8/8/8
f 4/9/9 5/10/10 8/11/11 1/12/12
f 2/13/13 7/14/14 6/15/15 3/16/16
f 3/17/17 6/18/18 5/19/19 4/20/20
f 1/21/21 8/22/22 7/23/23 2/24/24
