# This file uses centimeters as units for non-parametric coordinates.

v -0.542184 0.632645 0.338322
v -0.542184 1.602343 0.338322
v -0.542184 1.602343 -0.354318
v -0.542184 0.632645 -0.354318
v -0.542184 1.463814 -0.354318
v -0.542184 1.602343 -0.492845
v -0.542184 1.463814 -0.492845
v -0.542184 1.463814 0.476851
v -0.542184 1.602343 0.476851
v -0.542184 1.463814 0.338322
v -0.403657 -0.059995 0.338322
v -0.403657 0.632645 0.338322
v -0.403657 0.632645 -0.354318
v -0.403657 -0.059995 -0.354318
v -0.403657 0.771174 -0.354318
v -0.403657 1.463814 -0.354318
v -0.403657 1.463814 -0.492845
v -0.403657 0.771174 -0.492845
v -0.403657 0.771174 0.476851
v -0.403657 1.463814 0.476851
v -0.403657 1.463814 0.338322
v -0.403657 0.771174 0.338322
v -0.265129 -0.059995 -0.354318
v -0.265129 0.771174 -0.354318
v -0.265129 0.771174 -0.492845
v -0.265129 -0.059995 -0.492845
v -0.265129 -0.059995 0.476851
v -0.265129 0.771174 0.476851
v -0.265129 0.771174 0.338322
v -0.265129 -0.059995 0.338322
v -0.265129 1.740870 0.061266
v -0.265129 1.879399 0.061266
v -0.265129 1.879399 -0.077263
v -0.265129 1.740870 -0.077263
v 0.011928 1.602343 0.061266
v 0.011928 1.740870 0.061266
v 0.011928 1.740870 -0.077263
v 0.011928 1.602343 -0.077263
v 0.150455 1.602343 -0.077263
v 0.150455 1.879399 -0.077263
v 0.150455 1.879399 0.061266
v 0.150455 1.602343 0.061266
v 0.288984 -0.059995 -0.492845
v 0.288984 0.771174 -0.492845
v 0.288984 0.771174 -0.354318
v 0.288984 -0.059995 -0.354318
v 0.288984 -0.059995 0.338322
v 0.288984 0.771174 0.338322
v 0.288984 0.771174 0.476851
v 0.288984 -0.059995 0.476851
v 0.427512 -0.059995 -0.354318
v 0.427512 0.632645 -0.354318
v 0.427512 0.632645 0.338322
v 0.427512 -0.059995 0.338322
v 0.427512 0.771174 -0.492845
v 0.427512 1.463814 -0.492845
v 0.427512 1.463814 -0.354318
v 0.427512 0.771174 -0.354318
v 0.427512 0.771174 0.338322
v 0.427512 1.463814 0.338322
v 0.427512 1.463814 0.476851
v 0.427512 0.771174 0.476851
v 0.566040 0.632645 -0.354318
v 0.566041 1.602343 -0.354318
v 0.566041 1.602343 0.338322
v 0.566040 0.632645 0.338322
v 0.566040 1.463814 -0.492845
v 0.566040 1.602343 -0.492845
v 0.566040 1.463814 -0.354318
v 0.566040 1.463814 0.338322
v 0.566040 1.602343 0.476851
v 0.566040 1.463814 0.476851
v -0.542184 1.602343 -0.077263
v 0.566041 1.602343 -0.077263
v 0.566041 1.602343 0.061266
v -0.542184 1.602343 0.061266
v -0.265128 1.602343 -0.492845
v 0.288984 1.602343 -0.492845
v -0.403656 1.602343 -0.492845
v 0.427513 1.602343 -0.492845
v 0.150456 1.740870 -0.077263
v 0.150456 1.740870 0.061266
v 0.288984 1.602343 0.476851
v -0.265128 1.602343 0.476851
v -0.403656 1.602343 0.476851
v 0.427513 1.602343 0.476851
vt 0.042969 0.904297
vt 0.042969 0.917969
vt 0.033203 0.917969
vt 0.033203 0.904297
vt 0.000000 0.738281
vt 0.001953 0.738281
vt 0.001953 0.740234
vt 0.000000 0.740234
vt 0.000000 0.732422
vt 0.001953 0.732422
vt 0.001953 0.734375
vt 0.000000 0.734375
vt 0.046875 0.908203
vt 0.056641 0.908203
vt 0.056641 0.917969
vt 0.046875 0.917969
vt 0.001953 0.718750
vt 0.001953 0.728516
vt 0.000000 0.728516
vt 0.000000 0.718750
vt 0.001953 0.705078
vt 0.001953 0.714844
vt 0.000000 0.714844
vt 0.000000 0.705078
vt 0.001953 0.689453
vt 0.001953 0.701172
vt 0.000000 0.701172
vt 0.000000 0.689453
vt 0.001953 0.673828
vt 0.001953 0.685547
vt 0.000000 0.685547
vt 0.000000 0.673828
vt 0.000000 0.667969
vt 0.001953 0.667969
vt 0.001953 0.669922
vt 0.000000 0.669922
vt 0.000000 0.654297
vt 0.001953 0.654297
vt 0.001953 0.656250
vt 0.000000 0.656250
vt 0.146484 0.878906
vt 0.146484 0.882813
vt 0.148438 0.882813
vt 0.148438 0.878906
vt 0.171875 0.880859
vt 0.171875 0.892578
vt 0.173828 0.892578
vt 0.173828 0.880859
vt 0.177734 0.880859
vt 0.177734 0.892578
vt 0.179688 0.892578
vt 0.179688 0.880859
vt 0.191406 0.937500
vt 0.201172 0.937500
vt 0.201172 0.927734
vt 0.191406 0.927734
vt 0.185547 0.906250
vt 0.185547 0.916016
vt 0.187500 0.916016
vt 0.187500 0.906250
vt 0.185547 0.892578
vt 0.185547 0.902344
vt 0.187500 0.902344
vt 0.187500 0.892578
vt 0.191406 0.882813
vt 0.191406 0.896484
vt 0.201172 0.896484
vt 0.201172 0.882813
vt 0.158203 0.882813
vt 0.160156 0.882813
vt 0.160156 0.880859
vt 0.158203 0.880859
vt 0.164063 0.882813
vt 0.166016 0.882813
vt 0.166016 0.880859
vt 0.164063 0.880859
vt 0.492188 0.609375
vt 0.492188 0.621094
vt 0.501953 0.621094
vt 0.501953 0.609375
vt 0.460938 0.556641
vt 0.460938 0.564453
vt 0.462891 0.564453
vt 0.462891 0.556641
vt 0.466797 0.583984
vt 0.466797 0.591797
vt 0.468750 0.591797
vt 0.468750 0.583984
vt 0.472656 0.603516
vt 0.474609 0.603516
vt 0.474609 0.593750
vt 0.472656 0.593750
vt 0.472656 0.589844
vt 0.474609 0.589844
vt 0.474609 0.580078
vt 0.472656 0.580078
vt 0.466797 0.552734
vt 0.468750 0.552734
vt 0.468750 0.550781
vt 0.466797 0.550781
vt 0.472656 0.576172
vt 0.474609 0.576172
vt 0.474609 0.574219
vt 0.472656 0.574219
vt 0.472656 0.558594
vt 0.474609 0.558594
vt 0.474609 0.556641
vt 0.472656 0.556641
vt 0.472656 0.552734
vt 0.474609 0.552734
vt 0.474609 0.550781
vt 0.472656 0.550781
vt 0.490234 0.603516
vt 0.492188 0.603516
vt 0.492188 0.601563
vt 0.490234 0.601563
vt 0.496094 0.603516
vt 0.498047 0.603516
vt 0.498047 0.601563
vt 0.496094 0.601563
vt 0.513672 0.603516
vt 0.515625 0.603516
vt 0.515625 0.601563
vt 0.513672 0.601563
vt 0.519531 0.603516
vt 0.521484 0.603516
vt 0.521484 0.601563
vt 0.519531 0.601563
vt 0.478516 0.585938
vt 0.478516 0.589844
vt 0.480469 0.589844
vt 0.480469 0.585938
vt 0.591797 0.591797
vt 0.591797 0.607422
vt 0.585938 0.607422
vt 0.585938 0.591797
vt 0.558594 0.566406
vt 0.558594 0.582031
vt 0.552734 0.582031
vt 0.552734 0.566406
vt 0.554688 0.554688
vt 0.554688 0.562500
vt 0.552734 0.562500
vt 0.552734 0.554688
vt 0.589844 0.611328
vt 0.589844 0.617188
vt 0.587891 0.617188
vt 0.587891 0.611328
vt 0.576172 0.550781
vt 0.576172 0.556641
vt 0.574219 0.556641
vt 0.574219 0.550781
vt 0.886719 0.779297
vt 0.894531 0.779297
vt 0.894531 0.802734
vt 0.886719 0.802734
vt 0.833984 0.761719
vt 0.835938 0.761719
vt 0.835938 0.773438
vt 0.833984 0.773438
vt 0.839844 0.761719
vt 0.841797 0.761719
vt 0.841797 0.773438
vt 0.839844 0.773438
vt 0.447266 0.953125
vt 0.449219 0.953125
vt 0.449219 0.955078
vt 0.447266 0.955078
vt 0.447266 0.953125
vt 0.449219 0.953125
vt 0.449219 0.955078
vt 0.447266 0.955078
vt 0.865234 0.761719
vt 0.867188 0.761719
vt 0.867188 0.773438
vt 0.865234 0.773438
vt 0.898438 0.791016
vt 0.900391 0.791016
vt 0.900391 0.802734
vt 0.898438 0.802734
vt 0.894531 0.763672
vt 0.896484 0.763672
vt 0.896484 0.775391
vt 0.894531 0.775391
vt 0.900391 0.763672
vt 0.902344 0.763672
vt 0.902344 0.775391
vt 0.900391 0.775391
vt 0.841797 0.751953
vt 0.841797 0.757813
vt 0.839844 0.757813
vt 0.839844 0.751953
vt 0.447266 0.953125
vt 0.449219 0.953125
vt 0.449219 0.955078
vt 0.447266 0.955078
vt 0.171875 0.914063
vt 0.171875 0.919922
vt 0.173828 0.919922
vt 0.173828 0.914063
vt 0.447266 0.955078
vt 0.449219 0.955078
vt 0.449219 0.953125
vt 0.447266 0.953125
vt 0.171875 0.892578
vt 0.173828 0.892578
vt 0.173828 0.880859
vt 0.171875 0.880859
vt 0.171875 0.892578
vt 0.173828 0.892578
vt 0.173828 0.880859
vt 0.171875 0.880859
vt 0.898438 0.628906
vt 0.900391 0.628906
vt 0.900391 0.617188
vt 0.898438 0.617188
vt 0.904297 0.628906
vt 0.906250 0.628906
vt 0.906250 0.617188
vt 0.904297 0.617188
vt 0.890625 0.603516
vt 0.898438 0.603516
vt 0.898438 0.580078
vt 0.890625 0.580078
vt 0.884766 0.562500
vt 0.886719 0.562500
vt 0.886719 0.550781
vt 0.884766 0.550781
vt 0.890625 0.562500
vt 0.892578 0.562500
vt 0.892578 0.550781
vt 0.890625 0.550781
vt 0.447266 0.955078
vt 0.449219 0.955078
vt 0.449219 0.953125
vt 0.447266 0.953125
vt 0.447266 0.955078
vt 0.449219 0.955078
vt 0.449219 0.953125
vt 0.447266 0.953125
vn -1.000000 0.000000 0.000000
vn -1.000000 0.000000 0.000000
vn -1.000000 0.000000 0.000000
vn -1.000000 0.000000 0.000000
vn -1.000000 0.000000 0.000000
vn -1.000000 0.000000 0.000000
vn -1.000000 0.000000 0.000000
vn -1.000000 0.000000 0.000000
vn -1.000000 0.000000 0.000000
vn -1.000000 0.000000 0.000000
vn -1.000000 0.000000 0.000000
vn -1.000000 0.000000 0.000000
vn -1.000000 0.000000 0.000000
vn -1.000000 0.000000 0.000000
vn -1.000000 0.000000 0.000000
vn -1.000000 0.000000 0.000000
vn -1.000000 0.000000 0.000000
vn -1.000000 0.000000 0.000000
vn -1.000000 0.000000 0.000000
vn -1.000000 0.000000 0.000000
vn -1.000000 0.000000 0.000000
vn -1.000000 0.000000 0.000000
vn -1.000000 0.000000 0.000000
vn -1.000000 0.000000 0.000000
vn -1.000000 0.000000 0.000000
vn -1.000000 0.000000 0.000000
vn -1.000000 0.000000 0.000000
vn -1.000000 0.000000 0.000000
vn -1.000000 0.000000 0.000000
vn -1.000000 0.000000 0.000000
vn -1.000000 0.000000 0.000000
vn -1.000000 0.000000 0.000000
vn -1.000000 0.000000 0.000000
vn -1.000000 0.000000 0.000000
vn -1.000000 0.000000 0.000000
vn -1.000000 0.000000 0.000000
vn -1.000000 0.000000 0.000000
vn -1.000000 0.000000 0.000000
vn -1.000000 0.000000 0.000000
vn -1.000000 0.000000 0.000000
vn 1.000000 0.000000 0.000000
vn 1.000000 0.000000 0.000000
vn 1.000000 0.000000 0.000000
vn 1.000000 0.000000 0.000000
vn 1.000000 0.000000 0.000000
vn 1.000000 0.000000 0.000000
vn 1.000000 0.000000 0.000000
vn 1.000000 0.000000 0.000000
vn 1.000000 0.000000 0.000000
vn 1.000000 0.000000 0.000000
vn 1.000000 0.000000 0.000000
vn 1.000000 0.000000 0.000000
vn 1.000000 0.000000 0.000000
vn 1.000000 0.000000 0.000000
vn 1.000000 0.000000 0.000000
vn 1.000000 0.000000 0.000000
vn 1.000000 0.000000 0.000000
vn 1.000000 0.000000 0.000000
vn 1.000000 0.000000 0.000000
vn 1.000000 0.000000 0.000000
vn 1.000000 0.000000 0.000000
vn 1.000000 0.000000 0.000000
vn 1.000000 0.000000 0.000000
vn 1.000000 0.000000 0.000000
vn 1.000000 -0.000001 0.000000
vn 1.000000 -0.000001 0.000000
vn 1.000000 -0.000001 0.000000
vn 1.000000 -0.000001 0.000000
vn 1.000000 -0.000003 -0.000003
vn 1.000000 -0.000003 -0.000003
vn 1.000000 -0.000003 -0.000003
vn 1.000000 -0.000003 -0.000003
vn 1.000000 -0.000003 0.000003
vn 1.000000 -0.000003 0.000003
vn 1.000000 -0.000003 0.000003
vn 1.000000 -0.000003 0.000003
vn 0.000000 -1.000000 0.000000
vn 0.000000 -1.000000 0.000000
vn 0.000000 -1.000000 0.000000
vn 0.000000 -1.000000 0.000000
vn 0.000000 -1.000000 0.000000
vn 0.000000 -1.000000 0.000000
vn 0.000000 -1.000000 0.000000
vn 0.000000 -1.000000 0.000000
vn 0.000000 -1.000000 0.000000
vn 0.000000 -1.000000 0.000000
vn 0.000000 -1.000000 0.000000
vn 0.000000 -1.000000 0.000000
vn 0.000000 -1.000000 0.000000
vn 0.000000 -1.000000 0.000000
vn 0.000000 -1.000000 0.000000
vn 0.000000 -1.000000 0.000000
vn 0.000000 -1.000000 0.000000
vn 0.000000 -1.000000 0.000000
vn 0.000000 -1.000000 0.000000
vn 0.000000 -1.000000 0.000000
vn 0.000000 -1.000000 0.000000
vn 0.000000 -1.000000 0.000000
vn 0.000000 -1.000000 0.000000
vn 0.000000 -1.000000 0.000000
vn 0.000000 -1.000000 0.000000
vn 0.000000 -1.000000 0.000000
vn 0.000000 -1.000000 0.000000
vn 0.000000 -1.000000 0.000000
vn 0.000000 -1.000000 0.000000
vn 0.000000 -1.000000 0.000000
vn 0.000000 -1.000000 0.000000
vn 0.000000 -1.000000 0.000000
vn 0.000000 -1.000000 0.000000
vn 0.000000 -1.000000 0.000000
vn 0.000000 -1.000000 0.000000
vn 0.000000 -1.000000 0.000000
vn 0.000000 -1.000000 0.000000
vn 0.000000 -1.000000 0.000000
vn 0.000000 -1.000000 0.000000
vn 0.000000 -1.000000 0.000000
vn 0.000000 -1.000000 0.000000
vn 0.000000 -1.000000 0.000000
vn 0.000000 -1.000000 0.000000
vn 0.000000 -1.000000 0.000000
vn 0.000000 -1.000000 0.000000
vn 0.000000 -1.000000 0.000000
vn 0.000000 -1.000000 0.000000
vn 0.000000 -1.000000 0.000000
vn 0.000000 -1.000000 0.000000
vn 0.000000 -1.000000 0.000000
vn 0.000000 -1.000000 0.000000
vn 0.000000 -1.000000 0.000000
vn 0.000000 -1.000000 0.000000
vn 0.000000 -1.000000 0.000000
vn 0.000000 -1.000000 0.000000
vn 0.000000 -1.000000 0.000000
vn 0.000000 1.000000 -0.000000
vn 0.000000 1.000000 -0.000000
vn 0.000000 1.000000 -0.000000
vn 0.000000 1.000000 -0.000000
vn 0.000000 1.000000 0.000000
vn 0.000000 1.000000 0.000000
vn 0.000000 1.000000 0.000000
vn 0.000000 1.000000 0.000000
vn 0.000000 1.000000 0.000000
vn 0.000000 1.000000 0.000000
vn 0.000000 1.000000 0.000000
vn 0.000000 1.000000 0.000000
vn 0.000000 1.000000 0.000000
vn 0.000000 1.000000 0.000000
vn 0.000000 1.000000 0.000000
vn 0.000000 1.000000 0.000000
vn 0.000000 1.000000 0.000000
vn 0.000000 1.000000 0.000000
vn 0.000000 1.000000 0.000000
vn 0.000000 1.000000 0.000000
vn 0.000000 0.000000 -1.000000
vn 0.000000 0.000000 -1.000000
vn 0.000000 0.000000 -1.000000
vn 0.000000 0.000000 -1.000000
vn 0.000000 0.000000 -1.000000
vn 0.000000 0.000000 -1.000000
vn 0.000000 0.000000 -1.000000
vn 0.000000 0.000000 -1.000000
vn 0.000000 0.000000 -1.000000
vn 0.000000 0.000000 -1.000000
vn 0.000000 0.000000 -1.000000
vn 0.000000 0.000000 -1.000000
vn 0.000000 0.000000 -1.000000
vn 0.000000 0.000000 -1.000000
vn 0.000000 0.000000 -1.000000
vn 0.000000 0.000000 -1.000000
vn 0.000000 0.000000 -1.000000
vn 0.000000 0.000000 -1.000000
vn 0.000000 0.000000 -1.000000
vn 0.000000 0.000000 -1.000000
vn 0.000000 0.000000 -1.000000
vn 0.000000 0.000000 -1.000000
vn 0.000000 0.000000 -1.000000
vn 0.000000 0.000000 -1.000000
vn 0.000000 0.000000 -1.000000
vn 0.000000 0.000000 -1.000000
vn 0.000000 0.000000 -1.000000
vn 0.000000 0.000000 -1.000000
vn 0.000000 0.000000 -1.000000
vn 0.000000 0.000000 -1.000000
vn 0.000000 0.000000 -1.000000
vn 0.000000 0.000000 -1.000000
vn 0.000000 0.000000 -1.000000
vn 0.000000 0.000000 -1.000000
vn 0.000000 0.000000 -1.000000
vn 0.000000 0.000000 -1.000000
vn 0.000000 0.000000 -1.000000
vn 0.000000 0.000000 -1.000000
vn 0.000000 0.000000 -1.000000
vn 0.000000 0.000000 -1.000000
vn 0.000000 0.000000 -1.000000
vn 0.000000 0.000000 -1.000000
vn 0.000000 0.000000 -1.000000
vn 0.000000 0.000000 -1.000000
vn 0.000000 0.000000 1.000000
vn 0.000000 0.000000 1.000000
vn 0.000000 0.000000 1.000000
vn 0.000000 0.000000 1.000000
vn 0.000000 0.000000 1.000000
vn 0.000000 0.000000 1.000000
vn 0.000000 0.000000 1.000000
vn 0.000000 0.000000 1.000000
vn 0.000000 0.000000 1.000000
vn 0.000000 0.000000 1.000000
vn 0.000000 0.000000 1.000000
vn 0.000000 0.000000 1.000000
vn 0.000000 0.000000 1.000000
vn 0.000000 0.000000 1.000000
vn 0.000000 0.000000 1.000000
vn 0.000000 0.000000 1.000000
vn 0.000000 0.000000 1.000000
vn 0.000000 0.000000 1.000000
vn 0.000000 0.000000 1.000000
vn 0.000000 0.000000 1.000000
vn 0.000000 0.000000 1.000000
vn 0.000000 0.000000 1.000000
vn 0.000000 0.000000 1.000000
vn 0.000000 0.000000 1.000000
vn 0.000000 0.000000 1.000000
vn 0.000000 0.000000 1.000000
vn 0.000000 0.000000 1.000000
vn 0.000000 0.000000 1.000000
vn 0.000000 0.000000 1.000000
vn 0.000000 0.000000 1.000000
vn 0.000000 0.000000 1.000000
vn 0.000000 0.000000 1.000000
vn 0.000000 0.000000 1.000000
vn 0.000000 0.000000 1.000000
vn 0.000000 0.000000 1.000000
vn 0.000000 0.000000 1.000000
vn 0.000000 0.000000 1.000000
vn 0.000000 0.000000 1.000000
vn 0.000000 0.000000 1.000000
vn 0.000000 0.000000 1.000000
vn 0.000000 0.000000 1.000000
vn 0.000000 0.000000 1.000000
vn 0.000000 0.000000 1.000000
vn 0.000000 0.000000 1.000000
s off
g SodaRed
f 1/1/1 2/2/2 3/3/3 4/4/4
f 5/5/5 3/6/6 6/7/7 7/8/8
f 8/9/9 9/10/10 2/11/11 10/12/12
f 11/13/13 12/14/14 13/15/15 14/16/16
f 15/17/17 16/18/18 17/19/19 18/20/20
f 19/21/21 20/22/22 21/23/23 22/24/24
f 23/25/25 24/26/26 25/27/27 26/28/28
f 27/29/29 28/30/30 29/31/31 30/32/32
f 31/33/33 32/34/34 33/35/35 34/36/36
f 35/37/37 36/38/38 37/39/39 38/40/40
f 39/41/41 40/42/42 41/43/43 42/44/44
f 43/45/45 44/46/46 45/47/47 46/48/48
f 47/49/49 48/50/50 49/51/51 50/52/52
f 51/53/53 52/54/54 53/55/55 54/56/56
f 55/57/57 56/58/58 57/59/59 58/60/60
f 59/61/61 60/62/62 61/63/63 62/64/64
f 63/65/65 64/66/66 65/67/67 66/68/68
f 67/69/69 68/70/70 64/71/71 69/72/72
f 70/73/73 65/74/74 71/75/75 72/76/76
f 14/77/77 51/78/78 54/79/79 11/80/80
f 26/81/81 43/82/82 46/83/83 23/84/84
f 30/85/85 47/86/86 50/87/87 27/88/88
f 4/89/89 13/90/90 12/91/91 1/92/92
f 52/93/93 63/94/94 66/95/95 53/96/96
f 18/97/97 25/98/98 24/99/99 15/100/100
f 44/101/101 55/102/102 58/103/103 45/104/104
f 22/105/105 29/106/106 28/107/107 19/108/108
f 48/109/109 59/110/110 62/111/111 49/112/112
f 7/113/113 17/114/114 16/115/115 5/116/116
f 56/117/117 67/118/118 69/119/119 57/120/120
f 10/121/121 21/122/122 20/123/123 8/124/124
f 60/125/125 70/126/126 72/127/127 61/128/128
f 34/129/129 37/130/130 36/131/131 31/132/132
f 73/133/133 74/134/134 68/135/135 6/136/136
f 9/137/137 71/138/138 75/139/139 76/140/140
f 76/141/141 35/142/142 38/143/143 73/144/144
f 42/145/145 75/146/146 74/147/147 39/148/148
f 32/149/149 41/150/150 40/151/151 33/152/152
f 77/153/153 78/154/154 43/155/155 26/156/156
f 79/157/157 77/158/158 25/159/159 18/160/160
f 78/161/161 80/162/162 55/163/163 44/164/164
f 6/165/165 79/166/166 17/167/167 7/168/168
f 80/169/169 68/170/170 67/171/171 56/172/172
f 15/173/173 24/174/174 23/175/175 14/176/176
f 45/177/177 58/178/178 51/179/179 46/180/180
f 5/181/181 16/182/182 13/183/183 4/184/184
f 57/185/185 69/186/186 63/187/187 52/188/188
f 33/189/189 40/190/190 81/191/191 34/192/192
f 37/193/193 81/194/194 39/195/195 38/196/196
f 31/197/197 82/198/198 41/199/199 32/200/200
f 35/201/201 42/202/202 82/203/203 36/204/204
f 11/205/205 30/206/206 29/207/207 22/208/208
f 47/209/209 54/210/210 59/211/211 48/212/212
f 1/213/213 12/214/214 21/215/215 10/216/216
f 53/217/217 66/218/218 70/219/219 60/220/220
f 27/221/221 50/222/222 83/223/223 84/224/224
f 19/225/225 28/226/226 84/227/227 85/228/228
f 49/229/229 62/230/230 86/231/231 83/232/232
f 8/233/233 20/234/234 85/235/235 9/236/236
f 61/237/237 72/238/238 71/239/239 86/240/240
