# This file uses centimeters as units for non-parametric coordinates.

v -5.056276 1.108226 2.216450
v -5.056276 2.493506 2.216450
v -5.056276 2.493506 -2.216450
v -5.056276 1.108226 -2.216450
v -5.056276 0.000000 -1.523809
v -5.056276 1.108226 -1.523809
v -5.056276 0.000000 -2.216450
v -5.056276 0.000000 2.216450
v -5.056276 1.108226 1.523809
v -5.056276 0.000000 1.523809
v -4.917749 2.493506 2.216450
v -4.917749 2.632034 2.216450
v -4.917749 2.632034 -2.216450
v -4.917749 2.493506 -2.216450
v -4.225109 2.493507 -1.385283
v -4.225109 4.709957 -1.385283
v -4.225109 4.709957 -2.216450
v -4.225109 2.493506 -2.216450
v -4.086580 4.709957 -1.385283
v -4.086580 4.848486 -1.385283
v -4.086580 4.848486 -2.216450
v -4.086580 4.709957 -2.216450
v -4.086580 1.108226 2.216450
v -4.086580 1.939395 2.216450
v -4.086580 1.939395 2.077921
v -4.086580 1.108226 2.077921
v -3.948051 4.848486 -1.385283
v -3.948051 4.987014 -1.385283
v -3.948051 4.987014 -2.216450
v -3.948051 4.848486 -2.216450
v 4.225109 1.939395 2.216450
v 4.225110 2.493506 2.216450
v 4.225109 2.493507 -1.385283
v 4.225110 1.939395 -1.385283
v 4.225110 1.108226 2.216450
v 4.225110 1.939395 2.077921
v 4.225110 1.108226 2.077921
v 4.363637 0.000000 -1.523809
v 4.363637 1.108226 -1.523809
v 4.363637 1.108226 -2.216450
v 4.363637 0.000000 -2.216450
v 4.363637 0.000000 2.216450
v 4.363637 1.108226 2.216450
v 4.363637 1.108226 1.523809
v 4.363637 0.000000 1.523809
v 4.363636 2.493507 2.216450
v 4.363637 2.632034 2.216450
v 4.363637 2.632034 -2.216450
v 4.363637 2.493506 -2.216450
v -4.363636 0.000000 -2.216450
v -4.363636 1.108226 -2.216450
v -4.363636 1.108226 -1.523809
v -4.363636 0.000000 -1.523809
v -4.363636 0.000000 1.523809
v -4.363636 1.108226 1.523809
v -4.363636 1.108226 2.216450
v -4.363636 0.000000 2.216450
v -4.363636 2.493506 -2.216450
v -4.363636 2.632034 -2.216450
v -4.363636 2.632034 2.216450
v -4.363636 2.493507 2.216450
v -4.225109 1.939395 -1.385283
v -4.225109 2.493506 2.216450
v -4.225109 1.939395 2.216450
v -4.225109 1.108226 2.077921
v -4.225109 1.939395 2.077921
v -4.225109 1.108226 2.216450
v 3.948052 4.848486 -2.216450
v 3.948052 4.987014 -2.216450
v 3.948052 4.987014 -1.385283
v 3.948052 4.848486 -1.385283
v 4.086580 4.709957 -2.216450
v 4.086580 4.848486 -2.216450
v 4.086580 4.848486 -1.385283
v 4.086580 4.709957 -1.385283
v 4.086580 1.108226 2.077921
v 4.086580 1.939395 2.077921
v 4.086580 1.939395 2.216450
v 4.086580 1.108226 2.216450
v 4.225110 2.493506 -2.216450
v 4.225110 4.709957 -2.216450
v 4.225110 4.709957 -1.385283
v 4.917749 2.493506 -2.216450
v 4.917749 2.632034 -2.216450
v 4.917749 2.632034 2.216450
v 4.917749 2.493506 2.216450
v 5.056276 1.108226 -2.216450
v 5.056276 2.493506 -2.216450
v 5.056276 2.493506 2.216450
v 5.056276 1.108226 2.216450
v 5.056276 0.000000 -2.216450
v 5.056276 1.108226 -1.523809
v 5.056276 0.000000 -1.523809
v 5.056276 0.000000 1.523809
v 5.056276 1.108226 1.523809
v 5.056276 0.000000 2.216450
v 4.363636 1.108226 2.077921
v -4.363636 1.108226 2.077921
vt 0.074219 0.810547
vt 0.093750 0.810547
vt 0.093750 0.873047
vt 0.074219 0.873047
vt 0.148438 0.984375
vt 0.148438 1.000000
vt 0.138672 1.000000
vt 0.138672 0.984375
vt 0.148438 0.964844
vt 0.148438 0.980469
vt 0.138672 0.980469
vt 0.138672 0.964844
vt 0.074219 0.744141
vt 0.076172 0.744141
vt 0.076172 0.806641
vt 0.074219 0.806641
vt 0.164063 0.968750
vt 0.164063 1.000000
vt 0.152344 1.000000
vt 0.152344 0.968750
vt 0.119141 0.955078
vt 0.121094 0.955078
vt 0.121094 0.966797
vt 0.119141 0.966797
vt 0.130859 0.945313
vt 0.130859 0.957031
vt 0.128906 0.957031
vt 0.128906 0.945313
vt 0.138672 0.949219
vt 0.140625 0.949219
vt 0.140625 0.960938
vt 0.138672 0.960938
vt 0.339844 0.949219
vt 0.347656 0.949219
vt 0.347656 1.000000
vt 0.339844 1.000000
vt 0.335938 0.951172
vt 0.335938 0.962891
vt 0.333984 0.962891
vt 0.333984 0.951172
vt 0.361328 0.984375
vt 0.361328 1.000000
vt 0.351563 1.000000
vt 0.351563 0.984375
vt 0.361328 0.964844
vt 0.361328 0.980469
vt 0.351563 0.980469
vt 0.351563 0.964844
vt 0.080078 0.744141
vt 0.082031 0.744141
vt 0.082031 0.806641
vt 0.080078 0.806641
vt 0.083984 0.552734
vt 0.083984 0.568359
vt 0.093750 0.568359
vt 0.093750 0.552734
vt 0.208984 0.671875
vt 0.208984 0.687500
vt 0.218750 0.687500
vt 0.218750 0.671875
vt 0.128906 0.632813
vt 0.130859 0.632813
vt 0.130859 0.570313
vt 0.128906 0.570313
vt 0.134766 0.632813
vt 0.142578 0.632813
vt 0.142578 0.582031
vt 0.134766 0.582031
vt 0.144531 0.677734
vt 0.144531 0.689453
vt 0.146484 0.689453
vt 0.146484 0.677734
vt 0.449219 0.873047
vt 0.451172 0.873047
vt 0.451172 0.861328
vt 0.449219 0.861328
vt 0.392578 0.845703
vt 0.394531 0.845703
vt 0.394531 0.833984
vt 0.392578 0.833984
vt 0.398438 0.833984
vt 0.398438 0.845703
vt 0.400391 0.845703
vt 0.400391 0.833984
vt 0.373047 0.798828
vt 0.373047 0.830078
vt 0.384766 0.830078
vt 0.384766 0.798828
vt 0.226563 0.744141
vt 0.228516 0.744141
vt 0.228516 0.681641
vt 0.226563 0.681641
vt 0.232422 0.744141
vt 0.251953 0.744141
vt 0.251953 0.681641
vt 0.232422 0.681641
vt 0.412109 0.802734
vt 0.412109 0.818359
vt 0.421875 0.818359
vt 0.421875 0.802734
vt 0.425781 0.802734
vt 0.425781 0.818359
vt 0.435547 0.818359
vt 0.435547 0.802734
vt 0.261719 0.603516
vt 0.271484 0.603516
vt 0.271484 0.593750
vt 0.261719 0.593750
vt 0.261719 0.589844
vt 0.271484 0.589844
vt 0.271484 0.580078
vt 0.261719 0.580078
vt 0.261719 0.576172
vt 0.271484 0.576172
vt 0.271484 0.566406
vt 0.261719 0.566406
vt 0.261719 0.562500
vt 0.271484 0.562500
vt 0.271484 0.552734
vt 0.261719 0.552734
vt 0.292969 0.607422
vt 0.292969 0.730469
vt 0.353516 0.730469
vt 0.353516 0.607422
vt 0.328125 0.603516
vt 0.337891 0.603516
vt 0.337891 0.560547
vt 0.328125 0.560547
vt 0.341797 0.603516
vt 0.351563 0.603516
vt 0.351563 0.560547
vt 0.341797 0.560547
vt 0.357422 0.550781
vt 0.357422 0.666016
vt 0.359375 0.666016
vt 0.359375 0.550781
vt 0.152344 1.000000
vt 0.154297 1.000000
vt 0.154297 0.998047
vt 0.152344 0.998047
vt 0.152344 1.000000
vt 0.154297 1.000000
vt 0.154297 0.998047
vt 0.152344 0.998047
vt 0.591797 0.798828
vt 0.591797 0.917969
vt 0.542969 0.917969
vt 0.542969 0.798828
vt 0.544922 0.679688
vt 0.544922 0.794922
vt 0.542969 0.794922
vt 0.542969 0.679688
vt 0.744141 0.937500
vt 0.746094 0.937500
vt 0.746094 1.000000
vt 0.744141 1.000000
vt 0.750000 0.937500
vt 0.751953 0.937500
vt 0.751953 1.000000
vt 0.750000 1.000000
vt 0.755859 0.937500
vt 0.757813 0.937500
vt 0.757813 1.000000
vt 0.755859 1.000000
vt 0.761719 0.937500
vt 0.763672 0.937500
vt 0.763672 1.000000
vt 0.761719 1.000000
vt 0.791016 0.937500
vt 0.798828 0.937500
vt 0.798828 1.000000
vt 0.791016 1.000000
vt 0.802734 0.937500
vt 0.810547 0.937500
vt 0.810547 1.000000
vt 0.802734 1.000000
vt 0.744141 0.921875
vt 0.746094 0.921875
vt 0.746094 0.933594
vt 0.744141 0.933594
vt 0.750000 0.921875
vt 0.751953 0.921875
vt 0.751953 0.933594
vt 0.750000 0.933594
vt 0.767578 0.921875
vt 0.769531 0.921875
vt 0.769531 0.933594
vt 0.767578 0.933594
vt 0.773438 0.921875
vt 0.775391 0.921875
vt 0.775391 0.933594
vt 0.773438 0.933594
vt 0.691406 0.806641
vt 0.691406 0.917969
vt 0.679688 0.917969
vt 0.679688 0.806641
vt 0.800781 0.628906
vt 0.800781 0.748047
vt 0.769531 0.748047
vt 0.769531 0.628906
vt 0.824219 0.605469
vt 0.824219 0.748047
vt 0.804688 0.748047
vt 0.804688 0.605469
vt 0.830078 0.632813
vt 0.830078 0.748047
vt 0.828125 0.748047
vt 0.828125 0.632813
vt 0.835938 0.636719
vt 0.835938 0.748047
vt 0.833984 0.748047
vt 0.833984 0.636719
vt 0.021484 0.980469
vt 0.031250 0.980469
vt 0.031250 0.996094
vt 0.021484 0.996094
vt 0.021484 0.980469
vt 0.031250 0.980469
vt 0.031250 0.996094
vt 0.021484 0.996094
vt 0.154297 0.992188
vt 0.154297 1.000000
vt 0.152344 1.000000
vt 0.152344 0.992188
vt 0.154297 0.992188
vt 0.154297 1.000000
vt 0.152344 1.000000
vt 0.152344 0.992188
vt 0.021484 0.980469
vt 0.031250 0.980469
vt 0.031250 0.996094
vt 0.021484 0.996094
vt 0.021484 0.980469
vt 0.031250 0.980469
vt 0.031250 0.996094
vt 0.021484 0.996094
vt 0.021484 0.996094
vt 0.031250 0.996094
vt 0.031250 0.980469
vt 0.021484 0.980469
vt 0.021484 0.996094
vt 0.031250 0.996094
vt 0.031250 0.980469
vt 0.021484 0.980469
vt 0.074219 0.251953
vt 0.074219 0.371094
vt 0.113281 0.371094
vt 0.113281 0.251953
vt 0.117188 0.255859
vt 0.117188 0.371094
vt 0.119141 0.371094
vt 0.119141 0.255859
vt 0.068359 0.433594
vt 0.068359 0.544922
vt 0.070313 0.544922
vt 0.070313 0.433594
vt 0.441406 0.982422
vt 0.443359 0.982422
vt 0.443359 0.970703
vt 0.441406 0.970703
vt 0.441406 0.982422
vt 0.443359 0.982422
vt 0.443359 0.970703
vt 0.441406 0.970703
vt 0.132813 0.275391
vt 0.132813 0.390625
vt 0.144531 0.390625
vt 0.144531 0.275391
vt 0.226563 0.544922
vt 0.236328 0.544922
vt 0.236328 0.509766
vt 0.226563 0.509766
vt 0.240234 0.544922
vt 0.250000 0.544922
vt 0.250000 0.509766
vt 0.240234 0.509766
vt 0.076172 0.873047
vt 0.078125 0.873047
vt 0.078125 0.853516
vt 0.076172 0.853516
vt 0.076172 0.873047
vt 0.078125 0.873047
vt 0.078125 0.853516
vt 0.076172 0.853516
vt 0.068359 0.992188
vt 0.068359 1.000000
vt 0.070313 1.000000
vt 0.070313 0.992188
vt 0.068359 0.992188
vt 0.068359 1.000000
vt 0.070313 1.000000
vt 0.070313 0.992188
vn -1.000000 0.000000 0.000000
vn -1.000000 0.000000 0.000000
vn -1.000000 0.000000 0.000000
vn -1.000000 0.000000 0.000000
vn -1.000000 0.000000 0.000000
vn -1.000000 0.000000 0.000000
vn -1.000000 0.000000 0.000000
vn -1.000000 0.000000 0.000000
vn -1.000000 0.000000 0.000000
vn -1.000000 0.000000 0.000000
vn -1.000000 0.000000 0.000000
vn -1.000000 0.000000 0.000000
vn -1.000000 0.000000 0.000000
vn -1.000000 0.000000 0.000000
vn -1.000000 0.000000 0.000000
vn -1.000000 0.000000 0.000000
vn -1.000000 0.000000 0.000000
vn -1.000000 0.000000 0.000000
vn -1.000000 0.000000 0.000000
vn -1.000000 0.000000 0.000000
vn -1.000000 0.000000 0.000000
vn -1.000000 0.000000 0.000000
vn -1.000000 0.000000 0.000000
vn -1.000000 0.000000 0.000000
vn -1.000000 0.000000 0.000000
vn -1.000000 0.000000 0.000000
vn -1.000000 0.000000 0.000000
vn -1.000000 0.000000 0.000000
vn -1.000000 0.000000 0.000000
vn -1.000000 0.000000 0.000000
vn -1.000000 0.000000 0.000000
vn -1.000000 0.000000 0.000000
vn -1.000000 0.000000 0.000000
vn -1.000000 0.000000 0.000000
vn -1.000000 0.000000 0.000000
vn -1.000000 0.000000 0.000000
vn -1.000000 -0.000001 -0.000003
vn -1.000000 -0.000001 -0.000003
vn -1.000000 -0.000001 -0.000003
vn -1.000000 -0.000001 -0.000003
vn -1.000000 0.000000 0.000000
vn -1.000000 0.000000 0.000000
vn -1.000000 0.000000 0.000000
vn -1.000000 0.000000 0.000000
vn -1.000000 0.000000 0.000000
vn -1.000000 0.000000 0.000000
vn -1.000000 0.000000 0.000000
vn -1.000000 0.000000 0.000000
vn -1.000000 0.000006 -0.000000
vn -1.000000 0.000006 -0.000000
vn -1.000000 0.000006 -0.000000
vn -1.000000 0.000006 -0.000000
vn 1.000000 0.000000 0.000000
vn 1.000000 0.000000 0.000000
vn 1.000000 0.000000 0.000000
vn 1.000000 0.000000 0.000000
vn 1.000000 0.000000 0.000000
vn 1.000000 0.000000 0.000000
vn 1.000000 0.000000 0.000000
vn 1.000000 0.000000 0.000000
vn 1.000000 0.000000 0.000000
vn 1.000000 0.000000 0.000000
vn 1.000000 0.000000 0.000000
vn 1.000000 0.000000 0.000000
vn 1.000000 0.000000 0.000000
vn 1.000000 0.000000 0.000000
vn 1.000000 0.000000 0.000000
vn 1.000000 0.000000 0.000000
vn 1.000000 0.000000 0.000000
vn 1.000000 0.000000 0.000000
vn 1.000000 0.000000 0.000000
vn 1.000000 0.000000 0.000000
vn 1.000000 0.000000 0.000000
vn 1.000000 0.000000 0.000000
vn 1.000000 0.000000 0.000000
vn 1.000000 0.000000 0.000000
vn 1.000000 0.000000 0.000000
vn 1.000000 0.000000 0.000000
vn 1.000000 0.000000 0.000000
vn 1.000000 0.000000 0.000000
vn 1.000000 0.000000 0.000000
vn 1.000000 0.000000 0.000000
vn 1.000000 0.000000 0.000000
vn 1.000000 0.000000 0.000000
vn 1.000000 -0.000000 0.000001
vn 1.000000 -0.000000 0.000001
vn 1.000000 -0.000000 0.000001
vn 1.000000 -0.000000 0.000001
vn 1.000000 0.000000 0.000000
vn 1.000000 0.000000 0.000000
vn 1.000000 0.000000 0.000000
vn 1.000000 0.000000 0.000000
vn 1.000000 0.000000 0.000000
vn 1.000000 0.000000 0.000000
vn 1.000000 0.000000 0.000000
vn 1.000000 0.000000 0.000000
vn 1.000000 0.000000 0.000000
vn 1.000000 0.000000 0.000000
vn 1.000000 0.000000 0.000000
vn 1.000000 0.000000 0.000000
vn 1.000000 0.000000 0.000000
vn 1.000000 0.000000 0.000000
vn 1.000000 0.000000 0.000000
vn 1.000000 0.000000 0.000000
vn 0.000000 -1.000000 0.000000
vn 0.000000 -1.000000 0.000000
vn 0.000000 -1.000000 0.000000
vn 0.000000 -1.000000 0.000000
vn 0.000000 -1.000000 0.000000
vn 0.000000 -1.000000 0.000000
vn 0.000000 -1.000000 0.000000
vn 0.000000 -1.000000 0.000000
vn 0.000000 -1.000000 0.000000
vn 0.000000 -1.000000 0.000000
vn 0.000000 -1.000000 0.000000
vn 0.000000 -1.000000 0.000000
vn 0.000000 -1.000000 0.000000
vn 0.000000 -1.000000 0.000000
vn 0.000000 -1.000000 0.000000
vn 0.000000 -1.000000 0.000000
vn 0.000000 -1.000000 0.000000
vn 0.000000 -1.000000 0.000000
vn 0.000000 -1.000000 0.000000
vn 0.000000 -1.000000 0.000000
vn 0.000000 -1.000000 0.000000
vn 0.000000 -1.000000 0.000000
vn 0.000000 -1.000000 0.000000
vn 0.000000 -1.000000 0.000000
vn 0.000000 -1.000000 0.000000
vn 0.000000 -1.000000 0.000000
vn 0.000000 -1.000000 0.000000
vn 0.000000 -1.000000 0.000000
vn 0.000000 -1.000000 0.000000
vn 0.000000 -1.000000 0.000000
vn 0.000000 -1.000000 0.000000
vn 0.000000 -1.000000 0.000000
vn 0.000000 -1.000000 0.000000
vn 0.000000 -1.000000 0.000000
vn 0.000000 -1.000000 0.000000
vn 0.000000 -1.000000 0.000000
vn 0.000000 -1.000000 0.000000
vn 0.000000 -1.000000 0.000000
vn 0.000000 -1.000000 0.000000
vn 0.000000 -1.000000 0.000000
vn 0.000000 1.000000 0.000000
vn 0.000000 1.000000 0.000000
vn 0.000000 1.000000 0.000000
vn 0.000000 1.000000 0.000000
vn 0.000000 1.000000 0.000000
vn 0.000000 1.000000 0.000000
vn 0.000000 1.000000 0.000000
vn 0.000000 1.000000 0.000000
vn 0.000000 1.000000 0.000000
vn 0.000000 1.000000 0.000000
vn 0.000000 1.000000 0.000000
vn 0.000000 1.000000 0.000000
vn 0.000003 1.000000 -0.000000
vn 0.000003 1.000000 -0.000000
vn 0.000003 1.000000 -0.000000
vn 0.000003 1.000000 -0.000000
vn -0.000003 1.000000 -0.000000
vn -0.000003 1.000000 -0.000000
vn -0.000003 1.000000 -0.000000
vn -0.000003 1.000000 -0.000000
vn 0.000000 1.000000 0.000000
vn 0.000000 1.000000 0.000000
vn 0.000000 1.000000 0.000000
vn 0.000000 1.000000 0.000000
vn 0.000000 1.000000 0.000000
vn 0.000000 1.000000 0.000000
vn 0.000000 1.000000 0.000000
vn 0.000000 1.000000 0.000000
vn 0.000000 1.000000 0.000000
vn 0.000000 1.000000 0.000000
vn 0.000000 1.000000 0.000000
vn 0.000000 1.000000 0.000000
vn 0.000000 1.000000 0.000000
vn 0.000000 1.000000 0.000000
vn 0.000000 1.000000 0.000000
vn 0.000000 1.000000 0.000000
vn 0.000000 1.000000 0.000000
vn 0.000000 1.000000 0.000000
vn 0.000000 1.000000 0.000000
vn 0.000000 1.000000 0.000000
vn 0.000000 1.000000 0.000000
vn 0.000000 1.000000 0.000000
vn 0.000000 1.000000 0.000000
vn 0.000000 1.000000 0.000000
vn 0.000000 1.000000 0.000000
vn 0.000000 1.000000 0.000000
vn 0.000000 1.000000 0.000000
vn 0.000000 1.000000 0.000000
vn 0.000000 1.000000 0.000000
vn 0.000000 1.000000 0.000000
vn 0.000000 1.000000 0.000000
vn 0.000000 1.000000 0.000000
vn 0.000000 0.000000 -1.000000
vn 0.000000 0.000000 -1.000000
vn 0.000000 0.000000 -1.000000
vn 0.000000 0.000000 -1.000000
vn 0.000000 0.000000 -1.000000
vn 0.000000 0.000000 -1.000000
vn 0.000000 0.000000 -1.000000
vn 0.000000 0.000000 -1.000000
vn 0.000000 0.000000 -1.000000
vn 0.000000 0.000000 -1.000000
vn 0.000000 0.000000 -1.000000
vn 0.000000 0.000000 -1.000000
vn 0.000000 0.000000 -1.000000
vn 0.000000 0.000000 -1.000000
vn 0.000000 0.000000 -1.000000
vn 0.000000 0.000000 -1.000000
vn 0.000000 0.000000 -1.000000
vn 0.000000 0.000000 -1.000000
vn 0.000000 0.000000 -1.000000
vn 0.000000 0.000000 -1.000000
vn 0.000000 0.000000 -1.000000
vn 0.000000 0.000000 -1.000000
vn 0.000000 0.000000 -1.000000
vn 0.000000 0.000000 -1.000000
vn 0.000000 0.000000 -1.000000
vn 0.000000 0.000000 -1.000000
vn 0.000000 0.000000 -1.000000
vn 0.000000 0.000000 -1.000000
vn 0.000000 0.000000 -1.000000
vn 0.000000 0.000000 -1.000000
vn 0.000000 0.000000 -1.000000
vn 0.000000 0.000000 -1.000000
vn 0.000000 0.000000 -1.000000
vn 0.000000 0.000000 -1.000000
vn 0.000000 0.000000 -1.000000
vn 0.000000 0.000000 -1.000000
vn 0.000000 0.000000 -1.000000
vn 0.000000 0.000000 -1.000000
vn 0.000000 0.000000 -1.000000
vn 0.000000 0.000000 -1.000000
vn 0.000000 0.000000 1.000000
vn 0.000000 0.000000 1.000000
vn 0.000000 0.000000 1.000000
vn 0.000000 0.000000 1.000000
vn 0.000000 0.000000 1.000000
vn 0.000000 0.000000 1.000000
vn 0.000000 0.000000 1.000000
vn 0.000000 0.000000 1.000000
vn 0.000000 0.000000 1.000000
vn 0.000000 0.000000 1.000000
vn 0.000000 0.000000 1.000000
vn 0.000000 0.000000 1.000000
vn 0.000000 0.000000 1.000000
vn 0.000000 0.000000 1.000000
vn 0.000000 0.000000 1.000000
vn 0.000000 0.000000 1.000000
vn 0.000000 0.000000 1.000000
vn 0.000000 0.000000 1.000000
vn 0.000000 0.000000 1.000000
vn 0.000000 0.000000 1.000000
vn 0.000000 0.000000 1.000000
vn 0.000000 0.000000 1.000000
vn 0.000000 0.000000 1.000000
vn 0.000000 0.000000 1.000000
vn 0.000000 0.000000 1.000000
vn 0.000000 0.000000 1.000000
vn 0.000000 0.000000 1.000000
vn 0.000000 0.000000 1.000000
vn 0.000000 0.000000 1.000000
vn 0.000000 0.000000 1.000000
vn 0.000000 0.000000 1.000000
vn 0.000000 0.000000 1.000000
vn -0.000000 0.000000 1.000000
vn -0.000000 0.000000 1.000000
vn -0.000000 0.000000 1.000000
vn -0.000000 0.000000 1.000000
vn 0.000000 0.000000 1.000000
vn 0.000000 0.000000 1.000000
vn 0.000000 0.000000 1.000000
vn 0.000000 0.000000 1.000000
vn 0.000000 0.000000 1.000000
vn 0.000000 0.000000 1.000000
vn 0.000000 0.000000 1.000000
vn 0.000000 0.000000 1.000000
vn 0.000000 0.000000 1.000000
vn 0.000000 0.000000 1.000000
vn 0.000000 0.000000 1.000000
vn 0.000000 0.000000 1.000000
vn 0.000000 0.000000 1.000000
vn 0.000000 0.000000 1.000000
vn 0.000000 0.000000 1.000000
vn 0.000000 0.000000 1.000000
vn 0.000000 0.000000 1.000000
vn 0.000000 0.000000 1.000000
vn 0.000000 0.000000 1.000000
vn 0.000000 0.000000 1.000000
s off
g SofaL
f 1/1/1 2/2/2 3/3/3 4/4/4
f 5/5/5 6/6/6 4/7/7 7/8/8
f 8/9/9 1/10/10 9/11/11 10/12/12
f 11/13/13 12/14/14 13/15/15 14/16/16
f 15/17/17 16/18/18 17/19/19 18/20/20
f 19/21/21 20/22/22 21/23/23 22/24/24
f 23/25/25 24/26/26 25/27/27 26/28/28
f 27/29/29 28/30/30 29/31/31 30/32/32
f 31/33/33 32/34/34 33/35/35 34/36/36
f 35/37/37 31/38/38 36/39/39 37/40/40
f 38/41/41 39/42/42 40/43/43 41/44/44
f 42/45/45 43/46/46 44/47/47 45/48/48
f 46/49/49 47/50/50 48/51/51 49/52/52
f 50/53/53 51/54/54 52/55/55 53/56/56
f 54/57/57 55/58/58 56/59/59 57/60/60
f 58/61/61 59/62/62 60/63/63 61/64/64
f 62/65/65 15/66/66 63/67/67 64/68/68
f 65/69/69 66/70/70 64/71/71 67/72/72
f 68/73/73 69/74/74 70/75/75 71/76/76
f 72/77/77 73/78/78 74/79/79 75/80/80
f 76/81/81 77/82/82 78/83/83 79/84/84
f 80/85/85 81/86/86 82/87/87 33/88/88
f 83/89/89 84/90/90 85/91/91 86/92/92
f 87/93/93 88/94/94 89/95/95 90/96/96
f 91/97/97 87/98/98 92/99/99 93/100/100
f 94/101/101 95/102/102 90/103/103 96/104/104
f 7/105/105 50/106/106 53/107/107 5/108/108
f 41/109/109 91/110/110 93/111/111 38/112/112
f 10/113/113 54/114/114 57/115/115 8/116/116
f 45/117/117 94/118/118 96/119/119 42/120/120
f 51/121/121 40/122/122 97/123/123 98/124/124
f 6/125/125 52/126/126 55/127/127 9/128/128
f 39/129/129 92/130/130 95/131/131 44/132/132
f 26/133/133 76/134/134 79/135/135 23/136/136
f 98/137/137 65/138/138 67/139/139 56/140/140
f 37/141/141 97/142/142 43/143/143 35/144/144
f 66/145/145 36/146/146 34/147/147 62/148/148
f 24/149/149 78/150/150 77/151/151 25/152/152
f 2/153/153 11/154/154 14/155/155 3/156/156
f 61/157/157 63/158/158 18/159/159 58/160/160
f 32/161/161 46/162/162 49/163/163 80/164/164
f 86/165/165 89/166/166 88/167/167 83/168/168
f 12/169/169 60/170/170 59/171/171 13/172/172
f 47/173/173 85/174/174 84/175/175 48/176/176
f 16/177/177 19/178/178 22/179/179 17/180/180
f 75/181/181 82/182/182 81/183/183 72/184/184
f 20/185/185 27/186/186 30/187/187 21/188/188
f 71/189/189 74/190/190 73/191/191 68/192/192
f 28/193/193 70/194/194 69/195/195 29/196/196
f 17/197/197 81/198/198 80/199/199 18/200/200
f 3/201/201 88/202/202 87/203/203 4/204/204
f 21/205/205 73/206/206 72/207/207 22/208/208
f 29/209/209 69/210/210 68/211/211 30/212/212
f 4/213/213 51/214/214 50/215/215 7/216/216
f 40/217/217 87/218/218 91/219/219 41/220/220
f 13/221/221 59/222/222 58/223/223 14/224/224
f 48/225/225 84/226/226 83/227/227 49/228/228
f 9/229/229 55/230/230 54/231/231 10/232/232
f 44/233/233 95/234/234 94/235/235 45/236/236
f 5/237/237 53/238/238 52/239/239 6/240/240
f 38/241/241 93/242/242 92/243/243 39/244/244
f 62/245/245 34/246/246 82/247/247 16/248/248
f 19/249/249 75/250/250 74/251/251 20/252/252
f 27/253/253 71/254/254 70/255/255 28/256/256
f 65/257/257 26/258/258 25/259/259 66/260/260
f 76/261/261 37/262/262 36/263/263 77/264/264
f 23/265/265 79/266/266 78/267/267 24/268/268
f 8/269/269 57/270/270 61/271/271 2/272/272
f 42/273/273 96/274/274 89/275/275 46/276/276
f 56/277/277 67/278/278 63/279/279 61/280/280
f 35/281/281 43/282/282 46/283/283 32/284/284
f 11/285/285 61/286/286 60/287/287 12/288/288
f 46/289/289 86/290/290 85/291/291 47/292/292
