# This file uses centimeters as units for non-parametric coordinates.

v -11.255133 4.571430 -0.051240
v -11.255133 4.709957 -0.051240
v -11.255133 4.709957 -5.730895
v -11.255133 4.571430 -5.730895
v -11.116606 0.000000 -0.051240
v -11.116606 4.571430 -0.051240
v -11.116606 4.571430 -5.592366
v -11.116606 0.000000 -5.592366
v 11.047896 0.000000 -5.592366
v 11.047896 4.571430 -5.592366
v 11.047896 4.571430 -0.051240
v 11.047896 0.000000 -0.051240
v 11.186426 4.571430 -5.730895
v 11.186426 4.709957 -5.730895
v 11.186426 4.709957 -0.051240
v 11.186426 4.571430 -0.051240
v 11.186425 4.571430 -5.592366
v -11.255133 4.571430 -5.592366
v 11.047896 4.709957 -0.051240
v -11.116605 4.709957 -0.051240
vt 0.000000 0.847656
vt 0.001953 0.847656
vt 0.001953 0.927734
vt 0.000000 0.927734
vt 0.005859 0.921875
vt 0.070313 0.921875
vt 0.070313 1.000000
vt 0.005859 1.000000
vt 0.146484 0.632813
vt 0.210938 0.632813
vt 0.210938 0.554688
vt 0.146484 0.554688
vt 0.214844 0.632813
vt 0.216797 0.632813
vt 0.216797 0.552734
vt 0.214844 0.552734
vt 0.455078 0.687500
vt 0.455078 1.000000
vt 0.533203 1.000000
vt 0.533203 0.687500
vt 0.537109 0.683594
vt 0.537109 1.000000
vt 0.539063 1.000000
vt 0.539063 0.683594
vt 0.537109 0.679688
vt 0.539063 0.679688
vt 0.539063 0.601563
vt 0.537109 0.601563
vt 0.542969 1.000000
vt 0.544922 1.000000
vt 0.544922 0.921875
vt 0.542969 0.921875
vt 0.675781 0.601563
vt 0.675781 0.917969
vt 0.595703 0.917969
vt 0.595703 0.601563
vt 0.001953 0.228516
vt 0.001953 0.544922
vt 0.000000 0.544922
vt 0.000000 0.228516
vt 0.070313 0.232422
vt 0.070313 0.544922
vt 0.005859 0.544922
vt 0.005859 0.232422
vt 0.455078 0.232422
vt 0.455078 0.544922
vt 0.521484 0.544922
vt 0.521484 0.232422
vt 0.000000 0.927734
vt 0.001953 0.927734
vt 0.001953 0.925781
vt 0.000000 0.925781
vt 0.000000 0.927734
vt 0.001953 0.927734
vt 0.001953 0.925781
vt 0.000000 0.925781
vn -1.000000 0.000000 0.000000
vn -1.000000 0.000000 0.000000
vn -1.000000 0.000000 0.000000
vn -1.000000 0.000000 0.000000
vn -1.000000 0.000000 0.000000
vn -1.000000 0.000000 0.000000
vn -1.000000 0.000000 0.000000
vn -1.000000 0.000000 0.000000
vn 1.000000 0.000000 0.000000
vn 1.000000 0.000000 0.000000
vn 1.000000 0.000000 0.000000
vn 1.000000 0.000000 0.000000
vn 1.000000 0.000000 0.000000
vn 1.000000 0.000000 0.000000
vn 1.000000 0.000000 0.000000
vn 1.000000 0.000000 0.000000
vn 0.000000 -1.000000 0.000000
vn 0.000000 -1.000000 0.000000
vn 0.000000 -1.000000 0.000000
vn 0.000000 -1.000000 0.000000
vn 0.000000 -1.000000 0.000002
vn 0.000000 -1.000000 0.000002
vn 0.000000 -1.000000 0.000002
vn 0.000000 -1.000000 0.000002
vn 0.000000 -1.000000 0.000000
vn 0.000000 -1.000000 0.000000
vn 0.000000 -1.000000 0.000000
vn 0.000000 -1.000000 0.000000
vn 0.000000 -1.000000 0.000000
vn 0.000000 -1.000000 0.000000
vn 0.000000 -1.000000 0.000000
vn 0.000000 -1.000000 0.000000
vn 0.000000 1.000000 0.000000
vn 0.000000 1.000000 0.000000
vn 0.000000 1.000000 0.000000
vn 0.000000 1.000000 0.000000
vn 0.000000 0.000000 -1.000000
vn 0.000000 0.000000 -1.000000
vn 0.000000 0.000000 -1.000000
vn 0.000000 0.000000 -1.000000
vn 0.000000 0.000000 -1.000000
vn 0.000000 0.000000 -1.000000
vn 0.000000 0.000000 -1.000000
vn 0.000000 0.000000 -1.000000
vn 0.000000 0.000000 1.000000
vn 0.000000 0.000000 1.000000
vn 0.000000 0.000000 1.000000
vn 0.000000 0.000000 1.000000
vn 0.000000 0.000000 1.000000
vn 0.000000 0.000000 1.000000
vn 0.000000 0.000000 1.000000
vn 0.000000 0.000000 1.000000
vn 0.000000 0.000000 1.000000
vn 0.000000 0.000000 1.000000
vn 0.000000 0.000000 1.000000
vn 0.000000 0.000000 1.000000
s off
g TableL
f 1/1/1 2/2/2 3/3/3 4/4/4
f 5/5/5 6/6/6 7/7/7 8/8/8
f 9/9/9 10/10/10 11/11/11 12/12/12
f 13/13/13 14/14/14 15/15/15 16/16/16
f 8/17/17 9/18/18 12/19/19 5/20/20
f 4/21/21 13/22/22 17/23/23 18/24/24
f 18/25/25 7/26/26 6/27/27 1/28/28
f 10/29/29 17/30/30 16/31/31 11/32/32
f 2/33/33 15/34/34 14/35/35 3/36/36
f 3/37/37 14/38/38 13/39/39 4/40/40
f 7/41/41 10/42/42 9/43/43 8/44/44
f 5/45/45 12/46/46 19/47/47 20/48/48
f 1/49/49 6/50/50 20/51/51 2/52/52
f 11/53/53 16/54/54 15/55/55 19/56/56
